<svg width="162" height="122" viewBox="0 0 162 122" fill="none" xmlns="http://www.w3.org/2000/svg">
<path d="M157.434 18.8926L124.687 0.13258H124.289L124.024 0H102.148C101.445 0 100.771 0.279364 100.273 0.776633C99.776 1.2739 99.4967 1.94834 99.4967 2.65159C99.4967 7.57431 97.5411 12.2954 94.0602 15.7763C90.5794 19.2572 85.8583 21.2127 80.9355 21.2127C76.0128 21.2127 71.2917 19.2572 67.8109 15.7763C64.33 12.2954 62.3744 7.57431 62.3744 2.65159C62.3744 1.94834 62.0951 1.2739 61.5978 0.776633C61.1005 0.279364 60.4261 0 59.7228 0H37.8472L37.5821 0.13258H37.1843L4.4372 18.8926C2.6789 19.9107 1.37251 21.5582 0.7819 23.5023C0.191292 25.4464 0.360481 27.5422 1.25529 29.3664L13.4526 53.761C14.1147 55.0748 15.1281 56.1793 16.3803 56.9517C17.6325 57.7241 19.0744 58.1341 20.5456 58.1361H35.8585V113.819C35.8585 115.929 36.6966 117.953 38.1884 119.444C39.6802 120.936 41.7036 121.774 43.8133 121.774H118.058C120.168 121.774 122.191 120.936 123.683 119.444C125.174 117.953 126.013 115.929 126.013 113.819V58.1361H141.326C142.797 58.1341 144.239 57.7241 145.491 56.9517C146.743 56.1793 147.756 55.0748 148.419 53.761L160.616 29.3664C161.511 27.5422 161.68 25.4464 161.089 23.5023C160.499 21.5582 159.192 19.9107 157.434 18.8926ZM20.5456 52.8329C20.0576 52.8483 19.5762 52.7178 19.1629 52.458C18.7495 52.1982 18.4231 51.8209 18.2255 51.3745L6.02815 26.9799C5.71776 26.3705 5.65481 25.6648 5.85245 25.0101C6.05009 24.3554 6.49305 23.8024 7.08879 23.4666L35.8585 7.02671V52.8329H20.5456ZM120.709 113.819C120.709 114.523 120.43 115.197 119.933 115.694C119.435 116.192 118.761 116.471 118.058 116.471H43.8133C43.1101 116.471 42.4356 116.192 41.9383 115.694C41.4411 115.197 41.1617 114.523 41.1617 113.819V5.10431H57.2038C57.8243 10.9658 60.592 16.3904 64.9738 20.3328C69.3555 24.2752 75.0413 26.4566 80.9355 26.4566C86.8298 26.4566 92.5156 24.2752 96.8973 20.3328C101.279 16.3904 104.047 10.9658 104.667 5.10431H120.709V113.819ZM155.843 26.9799L143.646 51.3745C143.448 51.8209 143.122 52.1982 142.708 52.458C142.295 52.7178 141.813 52.8483 141.326 52.8329H126.013V7.02671L154.782 23.4666C155.378 23.8024 155.821 24.3554 156.019 25.0101C156.216 25.6648 156.153 26.3705 155.843 26.9799Z" fill="black"/>
</svg>
