<svg width="149" height="142" viewBox="0 0 149 142" fill="none" xmlns="http://www.w3.org/2000/svg">
<path d="M40.3898 125.292C44.75 125.292 48.2847 121.757 48.2847 117.397C48.2847 113.037 44.75 109.502 40.3898 109.502C36.0295 109.502 32.4949 113.037 32.4949 117.397C32.4949 121.757 36.0295 125.292 40.3898 125.292Z" fill="black"/>
<path d="M100.713 125.292C105.073 125.292 108.608 121.757 108.608 117.397C108.608 113.037 105.073 109.502 100.713 109.502C96.3528 109.502 92.8181 113.037 92.8181 117.397C92.8181 121.757 96.3528 125.292 100.713 125.292Z" fill="black"/>
<path d="M70.5526 134.547C74.1083 134.547 76.9907 128.973 76.9907 122.097C76.9907 115.22 74.1083 109.646 70.5526 109.646C66.9969 109.646 64.1145 115.22 64.1145 122.097C64.1145 128.973 66.9969 134.547 70.5526 134.547Z" stroke="black" stroke-width="3.63351" stroke-linecap="round"/>
<path d="M17.6985 138.155V83.9902H121.398V138.155" stroke="black" stroke-width="6.35864" stroke-linecap="round"/>
<path d="M17.698 83.9903C-12.9825 53.1323 33.1349 12.5957 60.1984 45.2729C75.4316 -41.378 194.933 26.523 121.398 83.9903" stroke="black" stroke-width="6.35864"/>
<path d="M17.594 110.964C7.60409 101.681 -7.07817 130.706 17.4014 134.978" stroke="black" stroke-width="6.35864"/>
<path d="M121.396 110.964C131.386 101.681 146.069 130.706 121.589 134.978" stroke="black" stroke-width="6.35864"/>
</svg>
