<svg width="155" height="158" viewBox="0 0 155 158" fill="none" xmlns="http://www.w3.org/2000/svg">
<path d="M77.5327 4.00074C167.515 4.37726 147.122 153.624 77.5327 153.86C9.0437 153.875 -14.5284 3.6153 77.5327 4.00074Z" stroke="black" stroke-width="7"/>
<path d="M16.9198 76.2576C4.34473 68.0564 -6.15039 102.292 21.2055 102.345" stroke="black" stroke-width="7"/>
<path d="M137.96 76.2977C150.535 68.0965 161.03 102.332 133.674 102.385" stroke="black" stroke-width="7"/>
<path d="M49.0708 103.34C74.0269 149.481 95.1143 124.701 106.771 103.34H49.0708Z" stroke="black" stroke-width="7"/>
<path d="M44.0282 81.3136C48.8282 81.3136 52.7194 77.4224 52.7194 72.6224C52.7194 67.8223 48.8282 63.9312 44.0282 63.9312C39.2281 63.9312 35.3369 67.8223 35.3369 72.6224C35.3369 77.4224 39.2281 81.3136 44.0282 81.3136Z" fill="black"/>
<path d="M110.436 81.3136C115.236 81.3136 119.128 77.4224 119.128 72.6224C119.128 67.8223 115.236 63.9312 110.436 63.9312C105.636 63.9312 101.745 67.8223 101.745 72.6224C101.745 77.4224 105.636 81.3136 110.436 81.3136Z" fill="black"/>
<path d="M77.2301 91.502C81.1444 91.502 84.3176 85.3655 84.3176 77.7957C84.3176 70.2259 81.1444 64.0894 77.2301 64.0894C73.3158 64.0894 70.1426 70.2259 70.1426 77.7957C70.1426 85.3655 73.3158 91.502 77.2301 91.502Z" stroke="black" stroke-width="4" stroke-linecap="round"/>
</svg>
